<?xml version="1.0" encoding="utf-8"?>
<!-- Generator: Adobe Illustrator 27.0.0, SVG Export Plug-In . SVG Version: 6.00 Build 0)  -->
<svg version="1.1" id="Layer_1" xmlns="http://www.w3.org/2000/svg" xmlns:xlink="http://www.w3.org/1999/xlink" x="0px" y="0px"
	 viewBox="0 0 16 16" style="enable-background:new 0 0 16 16;" xml:space="preserve">
<style type="text/css">
	.st0{fill:#FFFFFF;}
</style>
<path class="st0" d="M8,0c4.4,0,8,2.9,8,6.5c0,1.4-0.6,2.7-1.7,4c-1.7,1.9-5.4,4.3-6.3,4.6c-0.8,0.4-0.7-0.2-0.7-0.4l0,0L7.4,14
	c0-0.2,0.1-0.5,0-0.7C7.3,13.1,7,13,6.7,12.9C2.8,12.4,0,9.7,0,6.5C0,2.9,3.6,0,8,0z M5,7.7H3.5V4.9c0-0.1-0.1-0.2-0.2-0.2H2.8
	c-0.1,0-0.2,0.1-0.2,0.2l0,0v3.5c0,0,0,0.1,0,0.1v0l0,0l0,0c0,0,0.1,0,0.1,0H5c0.1,0,0.2-0.1,0.2-0.2V7.8C5.2,7.8,5.1,7.7,5,7.7
	C5,7.7,5,7.7,5,7.7z M5.8,4.8c-0.1,0-0.2,0.1-0.2,0.2c0,0,0,0,0,0v3.5c0,0.1,0.1,0.2,0.2,0.2h0.6c0.1,0,0.2-0.1,0.2-0.2V4.9
	c0-0.1-0.1-0.2-0.2-0.2H5.8z M9.7,4.8c-0.1,0-0.2,0.1-0.2,0.2c0,0,0,0,0,0V7L7.9,4.8c0,0,0,0,0,0v0c0,0,0,0,0,0l0,0c0,0,0,0,0,0h0
	l0,0l0,0c0,0,0,0,0,0l0,0h0l0,0l0,0l0,0c0,0,0,0,0,0h0l0,0l0,0h0l0,0h0l0,0H7.2c-0.1,0-0.2,0.1-0.2,0.2v3.5c0,0.1,0.1,0.2,0.2,0.2
	h0.6c0.1,0,0.2-0.1,0.2-0.2V6.3l1.6,2.2c0,0,0,0,0,0l0,0l0,0l0,0c0,0,0,0,0,0l0,0l0,0c0,0,0,0,0,0h0c0,0,0,0,0,0h0.6
	c0.1,0,0.2-0.1,0.2-0.2V4.9c0-0.1-0.1-0.2-0.2-0.2l0,0C10.2,4.8,9.7,4.8,9.7,4.8z M13.5,5.5V4.9c0-0.1-0.1-0.2-0.2-0.2c0,0,0,0,0,0
	h-2.2c0,0-0.1,0-0.1,0h0l0,0l0,0c0,0,0,0.1,0,0.1v3.5c0,0,0,0.1,0,0.1l0,0l0,0c0,0,0.1,0,0.1,0h2.2c0.1,0,0.2-0.1,0.2-0.2V7.8
	c0-0.1-0.1-0.2-0.2-0.2c0,0,0,0,0,0h-1.5V7.1h1.5c0.1,0,0.2-0.1,0.2-0.2V6.4c0-0.1-0.1-0.2-0.2-0.2c0,0,0,0,0,0h-1.5V5.6h1.5
	C13.4,5.6,13.5,5.6,13.5,5.5L13.5,5.5z"/>
</svg>
