<?xml version="1.0" encoding="utf-8"?>
<!-- Generator: Adobe Illustrator 16.0.0, SVG Export Plug-In . SVG Version: 6.00 Build 0)  -->
<!DOCTYPE svg PUBLIC "-//W3C//DTD SVG 1.1//EN" "http://www.w3.org/Graphics/SVG/1.1/DTD/svg11.dtd">
<svg version="1.1" id="Layer_1" xmlns="http://www.w3.org/2000/svg" xmlns:xlink="http://www.w3.org/1999/xlink" x="0px" y="0px"
	 width="199.203px" height="182.791px" viewBox="0 0 199.203 182.791" enable-background="new 0 0 199.203 182.791"
	 xml:space="preserve">
<g>
	<path fill="#004071" d="M199.203,86.178V19.465c0-10.75-8.72-19.465-19.467-19.465H19.466C8.709,0,0,8.715,0,19.465v66.713H199.203
		z"/>
	<path fill="#FFFFFF" d="M0,85.744v77.583c0,10.749,8.72,19.464,19.466,19.464h160.27c10.757,0,19.467-8.715,19.467-19.464V85.744H0
		z"/>
	<g>
		<path fill="#FFFFFF" d="M145.657,70.027c0-1.229-0.995-2.224-2.224-2.224h-10.564c-1.23,0-2.229,0.994-2.229,2.224v10.566
			c0,1.228,0.998,2.224,2.229,2.224h10.564c1.229,0,2.224-0.996,2.224-2.224V70.027z"/>
		<path fill="#FFFFFF" d="M158,38.801c0-1.621-1.318-2.938-2.94-2.938h-13.973c-1.625,0-2.939,1.316-2.939,2.938v13.974
			c0,1.624,1.314,2.94,2.939,2.94h13.973c1.622,0,2.94-1.317,2.94-2.94V38.801z"/>
		<path fill="#FFFFFF" d="M159.819,9.294c0-1.227-0.995-2.226-2.223-2.226h-10.57c-1.226,0-2.219,0.999-2.219,2.226v10.57
			c0,1.227,0.993,2.222,2.219,2.222h10.57c1.228,0,2.223-0.996,2.223-2.222V9.294z"/>
		<path fill="#FFFFFF" d="M189.331,55.015c0-1.231-0.998-2.225-2.226-2.225h-10.564c-1.233,0-2.224,0.994-2.224,2.225v10.569
			c0,1.224,0.99,2.219,2.224,2.219h10.564c1.228,0,2.226-0.995,2.226-2.219V55.015z"/>
		<path fill="#FFFFFF" d="M163.386,64.01c0-0.883-0.714-1.598-1.592-1.598h-7.594c-0.88,0-1.595,0.715-1.595,1.598v7.59
			c0,0.883,0.715,1.594,1.595,1.594h7.594c0.878,0,1.592-0.711,1.592-1.594V64.01z"/>
		<path fill="#FFFFFF" d="M174.317,26.677c0-0.64-0.522-1.158-1.159-1.158h-5.512c-0.64,0-1.159,0.518-1.159,1.158v5.51
			c0,0.638,0.52,1.158,1.159,1.158h5.512c0.637,0,1.159-0.52,1.159-1.158V26.677z"/>
		<path fill="#FFFFFF" d="M138.278,16.809c0-0.638-0.52-1.158-1.162-1.158h-5.511c-0.64,0-1.159,0.52-1.159,1.158v5.512
			c0,0.641,0.52,1.157,1.159,1.157h5.511c0.643,0,1.162-0.517,1.162-1.157V16.809z"/>
		<path fill="#FFFFFF" d="M189.654,11.822c0-0.641-0.52-1.157-1.165-1.157h-5.503c-0.646,0-1.162,0.516-1.162,1.157v5.513
			c0,0.64,0.517,1.158,1.162,1.158h5.503c0.646,0,1.165-0.518,1.165-1.158V11.822z"/>
	</g>
	<g>
		<path fill="#FFFFFF" d="M61.528,29.697h10.084c4.357,0,7.643,0.735,9.869,2.207c3.431,2.278,5.148,5.377,5.148,9.3
			c0,3.548-1.607,6.404-4.806,8.564c4.729,1.935,7.098,5.569,7.098,10.905c0,4.414-1.773,7.729-5.325,9.95
			c-1.704,1.068-3.605,1.745-5.713,2.037c-1.239,0.173-3.301,0.258-6.187,0.258H61.528V29.697z M70.545,48.213
			c2.019,0,3.408-0.046,4.16-0.132c3.155-0.372,5.335-1.613,6.555-3.72c0.666-1.127,0.996-2.291,0.996-3.503
			c0-2.594-1.157-4.586-3.47-5.969c-1.443-0.866-4.081-1.3-7.896-1.3h-5.076v14.624H70.545z M71.149,69.024
			c2.256,0,3.82-0.04,4.682-0.132c3.526-0.342,6.031-1.713,7.504-4.106c0.809-1.3,1.21-2.641,1.21-4.025
			c0-3.925-1.789-6.52-5.376-7.789c-1.647-0.576-4.219-0.865-7.717-0.865h-5.639v16.917H71.149z"/>
		<path fill="#FFFFFF" d="M52.672,52.972H25.277v3.897h22.209c0.909,0.112,1.671,0.446,1.579,1.756
			c-1.198,3.212-3.27,5.291-6.233,7.394c-3.321,2.35-6.959,3.527-10.917,3.527c-5.25,0-9.736-1.77-13.451-5.304
			C14.755,60.711,12.9,56.333,12.9,51.11c0-5.045,1.962-9.4,5.89-13.064c3.526-3.285,7.83-4.932,12.911-4.932
			c3.058,0,5.972,0.691,8.743,2.075c2.917,1.502,5.125,3.505,6.629,6.015h4.936c-1.064-3.116-3.574-5.957-7.525-8.524
			c-3.779-2.48-8.034-3.72-12.766-3.72c-6.458,0-11.923,2.204-16.393,6.619C10.851,39.991,8.62,45.172,8.62,51.11
			c0,6.263,2.274,11.59,6.836,15.988c4.552,4.399,9.971,6.599,16.263,6.599c5.998,0,11.261-1.934,15.795-5.798
			c4.419-3.775,6.489-7.417,7.06-13.192C54.574,53.873,53.847,52.929,52.672,52.972z"/>
		<path fill="#FFFFFF" d="M47.074,41.205c0,0,1.527,3.365,3.436,2.972c2.413-0.495,1.712-2.598,1.3-3.512L47.074,41.205z"/>
	</g>
	<g>
		<path fill="#004071" d="M16.442,96.73c1.425,0,2.579,1.154,2.579,2.576v12.262c0,1.425-1.154,2.574-2.579,2.574H4.184
			c-1.426,0-2.58-1.149-2.58-2.574V99.307c0-1.422,1.154-2.576,2.58-2.576H16.442z"/>
		<path fill="#004071" d="M38.226,116.957c1.146,0,2.073,0.929,2.073,2.08v9.871c0,1.148-0.926,2.069-2.073,2.069H28.35
			c-1.146,0-2.075-0.921-2.075-2.069v-9.871c0-1.151,0.929-2.08,2.075-2.08H38.226z"/>
		<path fill="#004071" d="M15.449,128.834c0.893,0,1.619,0.722,1.619,1.612v7.688c0,0.893-0.727,1.62-1.619,1.62H7.768
			c-0.896,0-1.62-0.728-1.62-1.62v-7.688c0-0.891,0.724-1.612,1.62-1.612H15.449z"/>
		<path fill="#004071" d="M34.69,145.365c0.893,0,1.623,0.729,1.623,1.622v7.687c0,0.894-0.729,1.614-1.623,1.614h-7.678
			c-0.896,0-1.617-0.721-1.617-1.614v-7.687c0-0.893,0.722-1.622,1.617-1.622H34.69z"/>
		<path fill="#004071" d="M17.319,159.103c0.55,0,0.998,0.445,0.998,0.99v4.719c0,0.555-0.448,0.995-0.998,0.995h-4.718
			c-0.553,0-0.996-0.44-0.996-0.995v-4.719c0-0.545,0.442-0.99,0.996-0.99H17.319z"/>
		<path fill="#004071" d="M35.32,97.92c0.547,0,0.993,0.443,0.993,0.993v4.718c0,0.551-0.445,0.998-0.993,0.998h-4.724
			c-0.55,0-0.99-0.447-0.99-0.998v-4.718c0-0.55,0.44-0.993,0.99-0.993H35.32z"/>
	</g>
	<g>
		<path fill="#004071" d="M50.416,101.901h14.461c6.591,0,11.522,1.009,14.794,3.032c4.821,2.983,7.236,7.51,7.236,13.581
			c0,4.087-1.193,7.5-3.569,10.242c-2.38,2.741-5.558,4.534-9.539,5.381c-2.103,0.443-4.593,0.663-7.466,0.663H55.881v22.245h-5.465
			V101.901z M65.417,129.778c2.625,0,4.544-0.095,5.767-0.279c1.886-0.294,3.674-0.957,5.375-1.988
			c3.252-1.985,4.879-5.022,4.879-9.108c0-4.928-2.31-8.369-6.931-10.321c-2.032-0.845-4.803-1.27-8.313-1.27
			c-0.371,0-0.89,0-1.555,0c-0.701,0-1.236,0-1.604,0h-7.154v22.967H65.417z"/>
		<path fill="#004071" d="M113.623,101.901h6.128l23.629,55.145h-6.01l-7.886-18.548H103.81l-8.08,18.548h-5.954L113.623,101.901z
			 M127.296,133.532l-10.619-25.347l-10.718,25.347H127.296z"/>
		<path fill="#004071" d="M163.527,138.608l-19.27-36.707h6.11l15.854,30.911l15.896-30.911h5.973l-19.099,36.709v18.436h-5.465
			V138.608z"/>
	</g>
</g>
</svg>
