<?xml version="1.0" encoding="utf-8"?>
<!-- Generator: Adobe Illustrator 27.0.0, SVG Export Plug-In . SVG Version: 6.00 Build 0)  -->
<svg version="1.1" id="Layer_1" xmlns="http://www.w3.org/2000/svg" xmlns:xlink="http://www.w3.org/1999/xlink" x="0px" y="0px"
	 viewBox="0 0 132.6 44" style="enable-background:new 0 0 132.6 44;" xml:space="preserve">
<style type="text/css">
	.st0{fill:#FFFFFF;}
	.st1{fill:#C81E23;}
</style>
<g>
	<g>
		<polygon class="st0" points="57.1,6.3 53.5,25 49.8,6.3 45.4,6.3 51.2,36.3 51.2,36.3 55.7,36.3 55.7,36.3 61.6,6.3 		"/>
		<polygon class="st0" points="76.5,10.3 76.5,6.3 68.7,6.3 64.2,6.3 64.2,10.3 64.2,18.7 64.2,22.5 64.2,32.4 64.2,36.3 68.7,36.3 
			76.5,36.3 76.5,32.4 68.7,32.4 68.7,22.5 75.4,22.5 75.4,18.7 68.7,18.7 68.7,10.3 		"/>
		<polygon class="st0" points="19.5,6.3 19.5,18.7 13.3,18.7 13.3,6.3 8.8,6.3 8.8,36.3 13.3,36.3 13.3,22.5 19.5,22.5 19.5,36.3 
			23.9,36.3 23.9,6.3 		"/>
		<path class="st0" d="M38.3,36.3h4.5l-5.8-30h0h-4.4h0l-5.8,30H31l1.1-5.9h5L38.3,36.3z M32.9,26.7l1.7-9l1.7,9H32.9z"/>
	</g>
	<g>
		<g>
			<rect x="1.7" y="6.3" class="st1" width="4.5" height="8.1"/>
			<rect x="1.7" y="18.2" class="st1" width="4.5" height="18.1"/>
		</g>
		<g>
			<polygon class="st1" points="120.3,15.8 120.3,11.7 115.9,11.7 115.9,20.6 			"/>
			<polygon class="st1" points="120.3,23 120.3,17.4 115.9,22.2 115.9,23 			"/>
			<path class="st1" d="M126.4,6.3v4.2h1.7c0.2-0.4,0.7-0.7,1.2-0.7c0.7,0,1.3,0.6,1.3,1.3c0,0.7-0.6,1.3-1.3,1.3
				c-0.5,0-1-0.3-1.2-0.7h-1.7v1.9h4.5V6.3H126.4z"/>
			<rect x="115.9" y="6.3" class="st1" width="4.5" height="4.2"/>
			<path class="st1" d="M128.5,24.2c-0.5,0-0.8-0.3-0.9-0.7h-1.2v5.2h4.5V14.7h-4.5V23h1.2c0.1-0.4,0.5-0.7,0.9-0.7c0.5,0,1,0.4,1,1
				S129,24.2,128.5,24.2z"/>
			<rect x="115.9" y="23.5" class="st1" width="4.5" height="5.2"/>
			<path class="st1" d="M129.3,34.2L129.3,34.2L129.3,34.2h-9.5c-0.2,0.3-0.5,0.5-0.9,0.5c-0.1,0-0.2,0-0.3,0l-1.4,1.5
				c0.3,0.1,0.6,0.2,0.9,0.2h10.1c1.3,0,2.4-1.1,2.4-2.4v-1.3L129.3,34.2z"/>
			<path class="st1" d="M118,33.9c0,0,0-0.1,0-0.1c0-0.5,0.4-1,1-1c0.4,0,0.7,0.2,0.9,0.5h8.8l2.1-2.3v-1.2h-4.5v2.6h-6.1v-2.6h-4.5
				v4.1c0,0.6,0.2,1.2,0.6,1.6L118,33.9z"/>
		</g>
		<g>
			<path class="st1" d="M110.3,6.3H97.8v7.8h1.8c0.2-0.3,0.5-0.5,0.9-0.5c0.1,0,0.2,0,0.3,0l1.6-1.7v-1.7h6.1v0.3h4.5V8.8
				C112.7,7.4,111.7,6.3,110.3,6.3z"/>
			<path class="st1" d="M102.2,17.4v-3.8l-0.8,0.9c0,0,0,0.1,0,0.1c0,0.5-0.4,1-1,1c-0.4,0-0.7-0.2-0.9-0.5h-1.8v2.3H102.2z"/>
			<polygon class="st1" points="110.2,23 112.7,23 112.7,11.7 108.3,11.7 108.3,21 			"/>
			<path class="st1" d="M109.8,23.5L109.8,23.5L109.8,23.5l-1.8-1.9h-5.8v-3.7h-4.5v4.5h4v0l0,0l2.9,3.1h5.9c1.2,0,2.1-0.9,2.2-2
				H109.8z"/>
			<polygon class="st1" points="102.2,33.6 102.2,25.6 103.2,25.6 101.2,23.4 97.8,23.4 97.8,33.6 			"/>
			<rect x="97.8" y="34.6" class="st1" width="4.5" height="1.7"/>
		</g>
		<g>
			<rect x="90.2" y="15.2" class="st1" width="4.5" height="1"/>
			<path class="st1" d="M94.6,31.7v-5.5h-4.5V30h1.6c0.2-0.3,0.5-0.5,0.9-0.5c0.5,0,1,0.4,1,1c0,0,0,0.1,0,0.1L94.6,31.7z"/>
			<path class="st1" d="M92.9,31.4c-0.1,0-0.2,0-0.3,0c-0.4,0-0.7-0.2-0.9-0.5h-1.6v1.5h-6.1v-1.5h-4.5v3c0,1.3,1.1,2.4,2.4,2.4
				h10.1c1.3,0,2.4-1.1,2.4-2.4v-0.6L92.9,31.4z"/>
			<rect x="79.7" y="23.4" class="st1" width="4.5" height="6.5"/>
			<path class="st1" d="M81.8,14.9c-0.2,0.1-0.3,0.1-0.5,0.1c-0.5,0-1-0.4-1.1-0.8h-0.5v8.1h4.5v-5L81.8,14.9z"/>
			<path class="st1" d="M84,9.2h-4.4v4.5h0.5c0.1-0.5,0.6-0.8,1.1-0.8c0.6,0,1.1,0.5,1.1,1.1c0,0.2-0.1,0.5-0.2,0.6l1.9,1.9v-6.3H85
				L84,9.2z"/>
			<path class="st1" d="M92.2,6.3H82.1c-1.2,0-2.1,0.8-2.4,1.9h4.9v0l0,0l1.8,2h3.7v3.3c0,0.3,0.3,0.6,0.6,0.6H94
				c0.3,0,0.6-0.3,0.6-0.6V8.8C94.6,7.4,93.5,6.3,92.2,6.3z"/>
		</g>
	</g>
</g>
</svg>
